/* XPM */
static char *result[] = {
/* columns rows colors chars-per-pixel */
"64 64 245 2 ",
"   c #3F3412",
".  c #493C13",
"X  c #603D0A",
"o  c #5A430B",
"O  c #68480A",
"+  c #744C0D",
"@  c #7C550D",
"#  c #6E5317",
"$  c #765917",
"%  c #6E4E12",
"&  c #554C28",
"*  c #775D27",
"=  c #7B723E",
"-  c #76662F",
";  c #7A7342",
":  c #746C41",
">  c #875915",
",  c #935E16",
"<  c #945D18",
"1  c #80550F",
"2  c #8B6616",
"3  c #956315",
"4  c #9D6A15",
"5  c #9C641A",
"6  c #976616",
"7  c #9B7417",
"8  c #8E6B0F",
"9  c #A26C17",
"0  c #A36B1A",
"q  c #A4671D",
"w  c #A47315",
"e  c #AD741B",
"r  c #AA7818",
"t  c #B27C1C",
"y  c #B47919",
"u  c #A0770F",
"i  c #876A29",
"p  c #9B6A26",
"a  c #997727",
"s  c #9A7D37",
"d  c #857631",
"f  c #A86E22",
"g  c #A87628",
"h  c #B57723",
"j  c #A97B34",
"k  c #CF790F",
"l  c #887A41",
"z  c #B58316",
"x  c #B98616",
"c  c #BC8B16",
"v  c #B4831A",
"b  c #BB8B1C",
"n  c #B7851A",
"m  c #B68A16",
"M  c #9C863D",
"N  c #A98326",
"B  c #B78827",
"V  c #BC9222",
"C  c #BB952E",
"Z  c #A78738",
"A  c #B58836",
"S  c #B89336",
"D  c #AD933E",
"F  c #C18C19",
"G  c #D98A17",
"H  c #C49416",
"J  c #CC9C15",
"K  c #C3921A",
"L  c #CC9C1B",
"P  c #C99518",
"I  c #D6961A",
"U  c #E49B1C",
"Y  c #E49818",
"T  c #CFA015",
"R  c #CEA21C",
"E  c #D2A216",
"W  c #D3A41B",
"Q  c #D6A81D",
"!  c #DCAA1E",
"~  c #D9A61D",
"^  c #EAA41C",
"/  c #EDAA1E",
"(  c #E5A41E",
")  c #F1AC1D",
"_  c #F1A719",
"`  c #F4B11F",
"'  c #F8B71F",
"]  c #E4B41E",
"[  c #C49423",
"{  c #C59924",
"}  c #CB9C23",
"|  c #CA9E2A",
" . c #C5982A",
".. c #D69B26",
"X. c #C49C33",
"o. c #C59C36",
"O. c #DA9B33",
"+. c #E39D26",
"@. c #CEA125",
"#. c #CDA22B",
"$. c #D4A422",
"%. c #DBAA23",
"&. c #D3A52B",
"*. c #D5AB2C",
"=. c #DAAE2A",
"-. c #D7A824",
";. c #DDB32D",
":. c #CDA433",
">. c #CCA63B",
",. c #D3AA35",
"<. c #D3AC3B",
"1. c #D8A738",
"2. c #DCB433",
"3. c #D7B13E",
"4. c #DAB33C",
"5. c #DBB639",
"6. c #E3AD24",
"7. c #EDAB22",
"8. c #E4AE29",
"9. c #E8A526",
"0. c #F1AE21",
"q. c #E5B224",
"w. c #E6B22B",
"e. c #EBB42A",
"r. c #EDBC2C",
"t. c #EBBA27",
"y. c #F3B423",
"u. c #F5B924",
"i. c #F9BB24",
"p. c #F3BC29",
"a. c #F6B92A",
"s. c #E4A837",
"d. c #EBB433",
"f. c #E3BA36",
"g. c #E4BC3D",
"h. c #E9B837",
"j. c #F2BA34",
"k. c #FDC326",
"l. c #F5C32A",
"z. c #FBC42A",
"x. c #FECB2A",
"c. c #F9C627",
"v. c #FFD32C",
"b. c #FFDB2E",
"n. c #EAC33B",
"m. c #F8C738",
"M. c #FEDA38",
"N. c #EFC02A",
"B. c #FFE03C",
"V. c #92884B",
"C. c #94894B",
"Z. c #AC9549",
"A. c #B89546",
"S. c #AA9149",
"D. c #BCA858",
"F. c #B5A151",
"G. c #BAAE67",
"H. c #C19C4C",
"J. c #C8A749",
"K. c #DBAC46",
"L. c #D5B142",
"P. c #D9B544",
"I. c #DDBC4C",
"U. c #DAB748",
"Y. c #C9A350",
"T. c #CAAA54",
"R. c #DCBD52",
"E. c #D7B758",
"W. c #C9B452",
"Q. c #E3AD42",
"!. c #E6B34A",
"~. c #E7BA47",
"^. c #E4BA55",
"/. c #D4BA66",
"(. c #C9B969",
"). c #DEC25A",
"_. c #DFC04F",
"`. c #E6C243",
"'. c #E4C34C",
"]. c #EBC54B",
"[. c #EDC848",
"{. c #F4C747",
"}. c #FEDB44",
"|. c #FCD749",
" X c #E2C254",
".X c #ECCC53",
"XX c #E4C55B",
"oX c #E6C95C",
"OX c #EBCC5D",
"+X c #EBC557",
"@X c #F2CA52",
"#X c #FFDD53",
"$X c #FEDD5B",
"%X c #F8D456",
"&X c #EED55B",
"*X c #FFE246",
"=X c #FEE25B",
"-X c #FFE658",
";X c #DAC467",
":X c #D6C975",
">X c #DDD17E",
",X c #CDC06F",
"<X c #E4CA63",
"1X c #EACD63",
"2X c #E6CA69",
"3X c #EDD165",
"4X c #ECD36B",
"5X c #EAD46B",
"6X c #F3D463",
"7X c #F3DA6D",
"8X c #F5D869",
"9X c #EBD573",
"0X c #EDDB7D",
"qX c #EBD775",
"wX c #F3DC74",
"eX c #F3DE7A",
"rX c #FADD73",
"tX c #EACD6C",
"yX c #FEE364",
"uX c #FDE869",
"iX c #FCE474",
"pX c #F5E27D",
"aX c #FAE47C",
"sX c #FEEC7C",
"dX c #FCE874",
"fX c #FFF474",
"gX c #FFF57A",
"hX c #FFF97D",
"jX c #FFF36F",
"kX c #EADC83",
"lX c #F4E483",
"zX c #FAE682",
"xX c #FDEB83",
"cX c #FCED8B",
"vX c #F5E88B",
"bX c #FFF384",
"nX c #FFF28C",
"mX c #FFFB88",
"MX c #FEF593",
"NX c #FFFA95",
"BX c #FFFD9A",
"VX c #FCF598",
"CX c #F3E88E",
"ZX c #FFFEA3",
"AX c None",
/* pixels */
"AXAXAXAXAXAXAXAXAXAXAXAXAXAXAXAXAXAXAXAXAXAXAXAXAXAXAXv.v.v.c.l.l.c.x.x.x.AXAXAXAXAXAXAXAXAXAXAXAXAXAXAXAXAXAXAXAXAXAXAXAXAXAXAX",
"AXAXAXAXAXAXAXAXAXAXAXAXAXAXAXAXAXAXAXAXAXAXAXM.r.-.L b r 9 w w u 3 3 6 w x L %.c.AXAXAXAXAXAXAXAXAXAXAXAXAXAXAXAXAXAXAXAXAXAXAX",
"AXAXAXAXAXAXAXAXAXAXAXAXAXAXAXAXAXAXAXAXM.w.@.c H P b t y y h h y y h h e q 5 6 3 y W l.AXAXAXAXAXAXAXAXAXAXAXAXAXAXAXAXAXAXAXAX",
"AXAXAXAXAXAXAXAXAXAXAXAXAXAXAXAXAXAXM.@.b H c z e e n F F F c x y y y y e h e f q 5 < , b t.AXAXAXAXAXAXAXAXAXAXAXAXAXAXAXAXAXAX",
"AXAXAXAXAXAXAXAXAXAXAXAXAXAXAXAX|.@.m P t 9 e c J J E ( q.~ q.p.e.b 6.8...e t 9 q q q q < , n t.AXAXAXAXAXAXAXAXAXAXAXAXAXAXAXAX",
"AXAXAXAXAXAXAXAXAXAXAXAXAXAX|.2.m H r 6 z J J ] e.y.Q ] ! Q E R P F P L P x p.p.K 9 0 q 5 5 < < [ l.AXAXAXAXAXAXAXAXAXAXAXAXAXAX",
"AXAXAXAXAXAXAXAXAXAXAXAXAX|.{ H v 3 z J Q 6.Q ! Q E -.`.8XiXaXiXrX7XtX_.K. .n b z } a.} 0 5 3 < < 0 q.AXAXAXAXAXAXAXAXAXAXAXAXAX",
"AXAXAXAXAXAXAXAXAXAXAXAXn.V { 6 w L W ! q.~ T E Q %.2.2.;.Q E E E J L } :.L.I.U.o.t b %.e F 0 < , , 3 $.AXAXAXAXAXAXAXAXAXAXAXAX",
"AXAXAXAXAXAXAXAXAXAX#X5. .C 2 V Q 8.6.W T E E E E E E E E E E E E E J J H H c b  .<.o.t r 6.p.t 3 , < < F p.AXAXAXAXAXAXAXAXAXAX",
"AXAXAXAXAXAXAXAXAX#XP.L.N 2 #.-.w.%.R E T W Q E E E E E ;.g.`.].`.`.f.%.J P H c x n V  .V r K n n 5 > > < V a.AXAXAXAXAXAXAXAXAX",
"AXAXAXAXAXAXAXAX=X`.).N a P.w.w.=.@.J Q Q Q W E E ! ;..XsXgXsXuXuXyXyX$X6X'.<.L F c z y x V t w 6.e.0 > > < F e.AXAXAXAXAXAXAXAX",
"AXAXAXAXAXAXAXAX'.0XS.Z OXh.h.4.b { *.%.%.Q Q E ;.|.uXuX%X{.h.s.s.d.j.m.}.M.|.{.<.} F c z t x x r %.I 5 > > < K e.AXAXAXAXAXAXAX",
"AXAXAXAXAXAXAX.X0XD.j aX.X3XI.B :.5.2.;.%.E n.uXfX~.O.s.O.{.I $.f.s.m.e.Y +.7.m.v.h.#.K x x t z x r 9 t.e > > < ..AXAXAXAXAXAXAX",
"AXAXAXAXAXAX%X;X/.i vX~.@X9Xg I..X`.g.@.;.sXaXQ.~.uX!.fX~.&.6XaXwX!.=Xm.m.}.Y +.Y k.v.%.K c x y z c y L l.w 1 > 5 6.AXAXAXAXAXAX",
"AXAXAXAXAX=XR.kX* kX6X].lXj 9XiX7X XV +XmX!.^.s.sXhX!.fX~.!.aXlXzX..=Xm.m.+.z.z.U ) Y k.t.K c c z z c r L t 0 + 3 r e.AXAXAXAXAX",
"AXAXAXAXAX].kXi /.rXaXvXj qXNXNXtXB pXwXK.!.iXbXs.iXQ.fX~.rX7XzXE.y |.{.d.|.j.9.M.x.Y Y y.c.P H x z x H e } %.6 + 6 } AXAXAXAXAX",
"AXAXAXAX=X;XD.M zXd.eXj /.VXVXkXh MXtX^.Q.bX!.rXsX+XQ.fX~.yX} B B #X+.*Xd.j.e.M.z.U b.` G U x.L H c z x c z v.b > 1 0 8.AXAXAXAX",
"AXAXAXAXI.0X# 0X~.@X/.H.MXMXlXj cX1X4.~.^.1.bX!.uXhX!.fX~.uX9.yXh.{.$X+.|.G e.x.U b.` I ] P U x.L H F x c c { { 9 + 6 F AXAXAXAX",
"AXAXAX$X/.S.Z.eXzX0Xf vXcXcXj kX9XK.3.7X4XwXQ.xX^.mX!.fX%X~.8Xs.yXd.~.#XG |.m.U M.y.Y *.rXrX1XU z.J H H c c z K @.2 + 9 6.AXAXAX",
"AXAXAX'.qX# eXh.tXS./.cXMXH./.zX^.tXwXaXzX+XbXQ.8XmX!.gXhX@X~.$Xs.yXd.m.*X{.+.}.a.0.m.wXcXcX8XI / ] J H H c H H M.y + 4 [ AXAXAX",
"AXAX=XE.Z.S.OXj.9Xj CXcXkXj ZX!.K.xXaXzXaX .NXdXO.mX!.gXfXs.$X%Xs.-Xh.~.|...*Xy.7.M.*XsXcXcX .9.k a.~ J J H H c f.@.3 1 r 6.AXAX",
"AXAX.X2X$ :X4X7Xj /.zXvXj CX^.kXZXQ.2.A j qXNXNXmXmXs.dX@XyX8Xs.yXh.m.|.9.*X}.9.M.M.b.t.[ g k 9./ G p.J J J H H x H r O r ..AXAX",
"AXAXR./.i 4X].9Xp zXCX/.j ZX^.^.cXZXK.MXBXBXBXNXBXBXBXBXBX4XR.bXrX{.bXBXBXBXBXNXBXBXgXl.b.) ^ a.G U 7.! J E J H H n.} 1 8 K e.AX",
"AXyXE.Z Z.+X~.Y.H.lXzXj CXE.CXZX^.zXBXK.MXBX2X<X1X8X8XaXBXV.a uX4X4X2XBX7X3X3X5X6XMXkX8 ( ) i.Y x./ G u.J E T J J f.g.u @ y w.AX",
"AX&X).$ ;Xh.OXj 2XeXqXj ZX^.^.CXZX^.zXNXcXcX< q z E E n.BX; a qX4XoX(.BX| K H L J xX>XX I k.Y x.) 9.U y.E E T J J R ;.m O m ~ AX",
"AX'.;X# 5X5X9Xp qXeXY.(.tXQ.ZXK.lXcX^.aXBX/.< q z J E `.BX; a 5X9XXX>XBX| K H J J xX>X$ c.k.v.` U x.i.I q.T T T J J 2.R O m L AX",
"AX_.W.- +Xh./.A 9XeXj CXE.cX^.ZX^.Q.BXrXBXj < 9 z E E `.BX; a 5X2X4.vXMX| H K P L sX>X# ' i.i.i.y.y.u.G p.E T J J J n.2.8 4 L AX",
"=XU.S.Z ~.~.A.H.9XwXp BX!.VXMX1X4XcXK.BXBXBXH.9 x E E `.BX; F.;X,XC.(.BX| K K J J gX>X# ] ' y.y.0.0./ G u.E T T J J n.n.u 8 L e.",
"=XW.s Z.`.'.Z E.4X2Xj cXK.^.XXwXnXQ.nX9X:XBXY.9 z J E `.BX; F.G.(.D.lXNX| K H J J zX0X$ x.x.k.k.k.i.a.( 7.~ J T T T R -.z @ T ] ",
"=XW.i J. X<Xg ).4XE.A.wXeXZXBXnXQ.MX1XU.s BXY.9 x E E n.BX; Z.iXeX;X>XNX| F H L T sX>XO c.^ 0.0.0.7./ U ( ~ E J T T R [.m O J q.",
"=XJ.$ W.h.'.p <XtXT.Y.1XQ.1.&...nX+X3XNXnXBXY.9 x E E `.BX= M xX,Xo ,XNX} F H P J zX>X% Y x.0.) ] ~ 6.Y ( ] T T T c R yXH O J 6.",
"$XJ.* L.r. Xp <X1XJ.T.1X^.~.zXwX7X3XcXO.rXBXY.9 x I E n.BX= W.bX,X- aXNX#.K K J J gX>X$ c.) i.~ wXMXwX@XI ] T T T T T =XJ o J 6.",
"=XJ.$ J.~._.p <XOXY.T.+X<.xXnXnX+XbXs.sX^.BXY.0 m T E `.NX= W.bX,X- gXVX| V J P J sXkXO ( l.x. XNXBXNXw.U q.E J T J H R J o J ] ",
"=XJ.$ J.~.R.p E.oXY.Y.+X^.aXnXaXB s.sX6XmXBXY.9 x T E `.BX= J.pXC.- sXNX| c H P J xX>X# u.x._ iXnXNX<XK U 6.E R T J R yXc O T %.",
"=X>.2 D f.g.g K.XXK.A.6X6X~.A A 7XhX!.~.~.BXY.4 x T E `.BX= W.xX5XW.gXNX} H H J J sX>X# u.) x.` I j h ^ ( ! W R R J *.yXc O J %.",
"=X>.a Z f.g.g J. XE.j iX..!.!.Q.Q.Q.6XbXuXBXY.0 z E T `.BX= 7 >X<XoXbXNX#.V P P T sX>X% ( x.' ' z.z.l.7.8.Q Q $.R J ;.&Xm @ J q.",
"-X<.N d P.P.S S R. Xp hXQ.bXbXbXhXhXhXgXhXBXY.0 z E E `.BX: d - d Z.,XNX| H H L J xX>X$ c.y.i.i.) 7.^ Y e.W -.-.R R @.R z 8 T ! ",
"AXP.C $ 3.g.o.j E.^.g 6Xs.s.h.Q.Q.s.h.s.~.BXY.0 z J E `.ZX: a V.,X;XlXNX| c H P J xX>X% p.i.i.) i.0.a.^ e.W 2.*.R R &X`.@ m Q AX",
"AX`.>.O <.l.<.p U.R.S T.@X8XfX6X8XfXfXfXfXBXT.9 x E E f.BXF.D iX6X;XcXMX#.c H L J bX,X$ ( k.) y.a.0.^ 9.6.=.5.5.R *.fX,.O V %.AX",
"AX.XX.% S r.3.f J.U.L.g uXs.yXO.yX@X%X~.~.BX2X9 z E E ~ bXVX;X>X>XkXBX1X#.H H P R VXG.$ l.` z.i./ p.9.7.~ '.'.5.R *.3XR O R 6.AX",
"AX=X:.i 7 ,.<.A A L.U.g 1Xs.s.uX|.h.%X+.%XmXMXg z E E ~ `.BXBXBXBXNXpX3.| K H J +XBX- 2 u.c.) i.a.9.^ e.*.7X&X5.*._.g.N 8 Q ;.AX",
"AXAX5.B $ >.l.>.< L.L.o.A =Xh.{.d.%X1.-X-XjXBXtXn T E Q `.NXNXnXsX4X X3.} K K &.NX>X  V ` i.z.^ a.7.7.%.5XxXpX@._.hX&X$ N =.q.AX",
"AXAX[.C % C N.2.g S L.P.f .Xs.s.$XO.n.;.;.#XsXBX1XR E Q `.MXMXxXwX3X X<.#.K #.cXBX& # R %...a.p.^ U e.*.NXNXwX,.qXmX_.o 3.w.AXAX",
"AXAX#X#.7 2 *.;.X.5 L.L.>.g =X..+.{.+XNXNXsX#XwXBXbXn.! n.NXnXxXaX3X X3.:.oXNXMX- o m '.8XOX6Xy.9.y.-.7XMXMX4.wXlXwXD a U.w.AXAX",
"AXAXAXg.C O C *.2.f A <.3.j >.|.8.@XMXVXnX`.m...E.MXBXnXaXBXMXnXaXwXwXzXNXBX,X& . C ~..X].n.q.U 7.8.P.nXMXeX3.MXNXlX# ).n.AXAXAX",
"AXAXAX|.V 2 2 *.l.X.6 :.<.<.f `.j.~.8XiXoXy 9.*Xe.N F.>XBXBXBXBXBXBXBXcXG.- . $ K t.%X`.5.#.y 9.e.&.xXMXcX*.pXVXMXG.M pXw.AXAXAX",
"AXAXAXAX2.V O C N.;.B g ,.1.>.e |.d.I B h I }.l.y.l.-.r $ d d V.l : & . o 2 V ( k.y.u.%.t y U p.$.wXnXMX_.).cXVXvX# kX6XAXAXAXAX",
"AXAXAXAX|. .7 @ { #.#.f B ,.1.o.h m.y.+.+.}.z.0.B.p.^ v./ ~ R r 7 8 N W ;.e.x.x./ i.) u.7.7.e.} 4XcXcX4X<.cXVXCXS.F.cXd.AXAXAXAX",
"AXAXAXAXAXn.b + r *.x.#.5  .,.>.:.t m.m.U y.) b.k./ v._ b.' k.-.OX6XOX|.k.' ) i.k./ a.U y.e.} 5XxXcXwX#.lXVXVX:X* vX].AXAXAXAXAX",
"AXAXAXAXAX}.-.v O m r.N.C 0  .:.1.:.n w.M.U ^ k.) v.' ' k.x.' `..X[.`.r.k.i.z.y.u.) ^ a.8.| 4XxXzXwX#.9XcXVXkX$ :XwXw.AXAXAXAXAX",
"AXAXAXAXAXAX}.K 7 + V } *.V e C :.:.:.| ! v.x.Y _ Y x.' k.x.y.yXn.f.} ..k.y.i.) ^ p.a.&.<.eXaXlX5X| 5XMXMXkXi D.aXd.AXAXAXAXAXAX",
"AXAXAXAXAXAXAXm.V 8 @ b c.m.V y  .:.:.,.,.~ ] x.v.` ) Y ) i.y.u.P e y ) ) ) y.a.j.f.3.1XwXeXeXXX| 2XMXZXlXs S.lX{.AXAXAXAXAXAXAX",
"AXAXAXAXAXAXAXAXn.c 2 @ V m.=.{ b V | :.,.<.,.$.] N.x.v.k.i.y.0.0.y.u.i.a.m.n.~.R.OX7XwXwX9XL.:.qXpXMX0XM s pX].AXAXAXAXAXAXAXAX",
"AXAXAXAXAXAXAXAXAXr.x 2 @ b L m.*.[ L #.:.,.,.<.,.*.2..XiXuX$X#X#X%X%X6X6X1X1X1X1X4X4X4XoX:.U.pXVXVX0Xs s 0X+Xe.AXAXAXAXAXAXAXAX",
"AXAXAXAXAXAXAXAXAXM.r.m 8 + m =.}.=.{ R R #.,.,.<.3.3.P.~.oX1X3X3X3XOXoXXXoXoX1X1X1X1XK.L.1X9XVXCX9Xi Z 0X].e.AXAXAXAXAXAXAXAXAX",
"AXAXAXAXAXAXAXAXAXAXAXN.K w % 7 } } n.2.{ R R @.,.,.<.3.L.P.U.I.I.I.^. X XXXoXoXoXI.U.oXeXMXlX9XW.$ F.9X~.w.AXAXAXAXAXAXAXAXAXAX",
"AXAXAXAXAXAXAXAXAXAXAXAXl.K v @ > m -.}.[.} #.} $.2.P._._.P.P.P.U.I. X XoXoX<XXX_.XX5X5XNXpX<Xs * ).4Xh.AXAXAXAXAXAXAXAXAXAXAXAX",
"AXAXAXAXAXAXAXAXAXAXAXAXAXv.Q b 7 + 6 V } 5.-X.X,.&.<. XwXaXxXaXaXwX4X3XoXXX X XiXNXVX<XXXZ.$ D <X+Xd.AXAXAXAXAXAXAXAXAXAXAXAXAX",
"AXAXAXAXAXAXAXAXAXAXAXAXAXAXv.t.H m 6 + 8 b #.`.,.%X=X.X>._.U.P.L. X+X X).sXNX6X<X<XE.Z $ s R.XXg.t.AXAXAXAXAXAXAXAXAXAXAXAXAXAX",
"AXAXAXAXAXAXAXAXAXAXAXAXAXAXAXAXx.] V m 4 @ 1 r b #.4.`.,.&XuXiXP.iXdX3X_.<X_.U.S p $ Z E.R.~.t.AXAXAXAXAXAXAXAXAXAXAXAXAXAXAXAX",
"AXAXAXAXAXAXAXAXAXAXAXAXAXAXAXAXAXAXx.q.H m v 6 @ @ 2 a N V  .X.o.o.C C N i > $ a H.I.I.~.a.AXAXAXAXAXAXAXAXAXAXAXAXAXAXAXAXAXAX",
"AXAXAXAXAXAXAXAXAXAXAXAXAXAXAXAXAXAXAXAXx.N.W H b b v 7 2 2 > > > 2 2 p N S J.P.L.g.r.t.AXAXAXAXAXAXAXAXAXAXAXAXAXAXAXAXAXAXAXAX",
"AXAXAXAXAXAXAXAXAXAXAXAXAXAXAXAXAXAXAXAXAXAXAXx.l.q.%.@.@. . . .:.X.:.,.,.2.r.r.p.AXAXAXAXAXAXAXAXAXAXAXAXAXAXAXAXAXAXAXAXAXAXAX",
"AXAXAXAXAXAXAXAXAXAXAXAXAXAXAXAXAXAXAXAXAXAXAXAXAXAXAXl.c.l.l.l.l.l.p.z.l.AXAXAXAXAXAXAXAXAXAXAXAXAXAXAXAXAXAXAXAXAXAXAXAXAXAXAX"
};
