/* XPM */
static char *result[] = {
/* columns rows colors chars-per-pixel */
"32 32 225 2 ",
"   c #7D651F",
".  c #766732",
"X  c #8B5B13",
"o  c #875A11",
"O  c #8E650F",
"+  c #956E0E",
"@  c #97720E",
"#  c #98720D",
"$  c #89691A",
"%  c #996E14",
"&  c #976118",
"*  c #9B6419",
"=  c #956916",
"-  c #9C7214",
";  c #9D751B",
":  c #A36A1B",
">  c #A57219",
",  c #AC741B",
"<  c #AA7D19",
"1  c #A37719",
"2  c #B37D1B",
"3  c #B67B1D",
"4  c #9B7D2B",
"5  c #987624",
"6  c #8A7530",
"7  c #A67925",
"8  c #857A43",
"9  c #AE841B",
"0  c #B48216",
"q  c #BC8A16",
"w  c #B4831C",
"e  c #BB851A",
"r  c #B5881A",
"t  c #BD8C1C",
"y  c #B98616",
"u  c #A78129",
"i  c #A9862B",
"p  c #B38323",
"a  c #B48B22",
"s  c #BF8D22",
"d  c #B1812A",
"f  c #BB9024",
"g  c #B99329",
"h  c #A58838",
"j  c #B58633",
"k  c #B88D33",
"l  c #BC933D",
"z  c #BA9536",
"x  c #C18F16",
"c  c #C28D1D",
"v  c #C59316",
"b  c #C89617",
"n  c #CC9D15",
"m  c #C6931C",
"M  c #CC9B1C",
"N  c #C9971F",
"B  c #D8981C",
"V  c #E49C1B",
"C  c #CEA118",
"Z  c #D3A316",
"A  c #D5A41C",
"S  c #D7A91E",
"D  c #DCA91E",
"F  c #E6A71E",
"G  c #F5B11E",
"H  c #C59622",
"J  c #C79822",
"K  c #CC9C23",
"L  c #CC9F29",
"P  c #C89626",
"I  c #D89A23",
"U  c #C69B39",
"Y  c #CEA126",
"T  c #D3A423",
"R  c #D9A522",
"E  c #DCAC24",
"W  c #D5AB2C",
"Q  c #DAAD2B",
"!  c #D3A728",
"~  c #DDB22D",
"^  c #DEB227",
"/  c #CBA133",
"(  c #C9A23A",
")  c #D1A634",
"_  c #D2A934",
"`  c #D4AB3A",
"'  c #D6AA37",
"]  c #DEB434",
"[  c #DAB43D",
"{  c #DEB93B",
"}  c #D6B03E",
"|  c #EAA620",
" . c #E3AB22",
".. c #EDAB21",
"X. c #E2A825",
"o. c #F1AE21",
"O. c #E2B124",
"+. c #EBB223",
"@. c #E2B42C",
"#. c #E7BA29",
"$. c #ECB92B",
"%. c #F3B423",
"&. c #F6B923",
"*. c #FABC24",
"=. c #F4B92C",
"-. c #F5B92C",
";. c #E3B434",
":. c #E4B53D",
">. c #E3BA3A",
",. c #EBBA3D",
"<. c #EBB936",
"1. c #F4BD36",
"2. c #F2BA37",
"3. c #F9C328",
"4. c #FAC332",
"5. c #F4C53C",
"6. c #F9C63C",
"7. c #FFD131",
"8. c #E7C23B",
"9. c #998A44",
"0. c #A58E44",
"q. c #A59349",
"w. c #AD9449",
"e. c #B59D4C",
"r. c #BA9843",
"t. c #AE9951",
"y. c #B7A452",
"u. c #BEB56E",
"i. c #C19C48",
"p. c #C4A44A",
"a. c #C8AA4D",
"s. c #DDBA44",
"d. c #DCBB4C",
"f. c #D9B345",
"g. c #CAAD54",
"h. c #CBAB5A",
"j. c #C2A755",
"k. c #C7B25D",
"l. c #CBB45C",
"z. c #D6B455",
"x. c #DCBD53",
"c. c #DBB95B",
"v. c #D5B65A",
"b. c #D9AD45",
"n. c #E2BC42",
"m. c #E2BC4A",
"M. c #EABB4B",
"N. c #E7B943",
"B. c #E4BF53",
"V. c #C2B86E",
"C. c #CEBA65",
"Z. c #D3B662",
"A. c #DABF69",
"S. c #D1BC66",
"D. c #DFC04D",
"F. c #DFC25E",
"G. c #E5C345",
"H. c #EFCA45",
"J. c #E5C44B",
"K. c #ECC74D",
"L. c #EBCA4C",
"P. c #EAC046",
"I. c #F4C342",
"U. c #F3C44A",
"Y. c #F6CA49",
"T. c #FCD34B",
"R. c #FFD845",
"E. c #E3C454",
"W. c #EBC454",
"Q. c #ECCC54",
"!. c #E4C55A",
"~. c #E6C95D",
"^. c #EBCD5C",
"/. c #E8C455",
"(. c #F8CF54",
"). c #F3CE5B",
"_. c #F3CB55",
"`. c #EED055",
"'. c #F6D356",
"]. c #F7D15C",
"[. c #F8D25C",
"{. c #FFDC5E",
"}. c #DBC562",
"|. c #D8C368",
" X c #CEC275",
".X c #DECC73",
"XX c #E5CD65",
"oX c #EBCD62",
"OX c #E2CB6C",
"+X c #EBCC6D",
"@X c #F2CE62",
"#X c #ECD264",
"$X c #EDD26C",
"%X c #EED86E",
"&X c #F5D565",
"*X c #F8D461",
"=X c #F2D46C",
"-X c #F5DA6D",
";X c #FBDE69",
":X c #EBCF71",
">X c #E3C971",
",X c #EFD371",
"<X c #EED973",
"1X c #E5D57A",
"2X c #F2DB7C",
"3X c #F3DC75",
"4X c #FFE569",
"5X c #F5E27A",
"6X c #FBE47D",
"7X c #FFEC7E",
"8X c #FDE573",
"9X c #F2DD81",
"0X c #EEE185",
"qX c #F6E381",
"wX c #F9E581",
"eX c #FDEB84",
"rX c #F4E588",
"tX c #F6E989",
"yX c #FDEE8A",
"uX c #F6E886",
"iX c #FFF28A",
"pX c #FFF98B",
"aX c #FDF492",
"sX c #FFFA95",
"dX c None",
/* pixels */
"dXdXdXdXdXdXdXdXdXdXdXdX#.T A N m m N R dXdXdXdXdXdXdXdXdXdXdXdX",
"dXdXdXdXdXdXdXdXdX>.E q y q e 3 3 3 , : : t R dXdXdXdXdXdXdXdXdX",
"dXdXdXdXdXdXdXdXT 0 0 m E D D D M D c K , * & 2 E dXdXdXdXdXdXdX",
"dXdXdXdXdXdX{ t < M  .Z S ] L.G.n.b.) U s T , & & P dXdXdXdXdXdX",
"dXdXdXdXdXs.a a E S Z Z Z Z E ] Q R b t H f t m : X t dXdXdXdXdX",
"dXdXdXdX^.r.` ;.K T S Z O.'.;X(.U.T.T.>.H e y 2 I > X e dXdXdXdX",
"dXdXdX^.y.}.#XU s.] >.'.].M.:.N.M.I.=.o.=.E c 2 0 H w X P dXdXdX",
"dXdXdXC.Z.-Xh.eXB.!.B.@X;X[.W.6Xb.T.1.-.&.F +.x 0 0 t > & R dXdX",
"dXdX#Xw.W.h.wX>X+XB.B.@X8X].'.' N.1.<.4.&.G B +.v q y T o w dXdX",
"dX`.e.F.>XA.9XA.B.=X-X@X8X[.).U.Y.I.4.-.*.,.6XN. .v v q H o T dX",
"dX~.q.^.j.eXh.:X,X!.v.iX8X].(.'.Y.I.2.4.7.R.c.B V D n v Y X c dX",
"dXg.p./.v.|.>X2XwX,XsX9XeXeX1XF.&XyXeXeXiXx.%.o.F F n n ! a > dX",
"Q.0.~.p.<Xh.+X:XwX2X9X: x @.V.a.oX0XH v J.0.%.*.o.F A n n T O R ",
"Q.h P.i.<XZ.,X2X@X6X9X7 v Q V.j.l.rXJ v J.q.&.%.G F F n n 8.+ A ",
"D.0.E.i.OXv.,X6X=X+X1Xj x ~ V.k.|.tXJ b J.q.3.*.%.F F n n E @ S ",
"D.h G.r.c.c.N.B.=X-XyXj v @.V.|.9.uXJ v L.q.%.+.Y.N.D C n G.+ A ",
"m.h m.l z.c.@XyXm.&XeXj v ^ u.XX9.pXJ m J.q.%.I.sXE.F n n ~ @ A ",
"d.4 >.l c.z.N.( ).).7Xj t ^ u.v.}.iXJ b J.q.%.&.R X. .A n J.@ A ",
"G.4 f.k x.a.M.*X].].7Xk v ~ u.6 y.tXN b J.q.&.&.o.| X.W C { @ R ",
"L.5 ] k b.U (.[.4X;X7Xz b S 0X|.1XeXJ b Q.9.&.*.%.| ~ n.Y J.- E ",
"dXg i ) z U N.M.I.M.4X$Xv Z 8XsXeXD.J M qX  &.%.%. .#XJ.E.z f dX",
"dX[ = @.d b.U :.<.Q.;X8X-XE -XyX-Xd.) 5X8 g N.4.| { sXE.5Xh { dX",
"dXH.5 g Y z / ' N.eXE.$.x.1XsXsXyXeX X. 9 L.>.B O.5X%X5X0Xe.<.dX",
"dXdXW = Q d / U <.I I 4.3.D a i 6 $ 9 O.&.+.N X.#XeXF.aXt.-XdXdX",
"dXdXdX9 < #.p / L ~ %.*.&.*.3.$.Q.L.*.%.%...O.~.wXx.aXC.S.,.dXdX",
"dXdXdX8.% 9 @.p / / ^ &.G G *.4.Y B %.&.$.{ $X<Xd.tX>Xy.W.dXdXdX",
"dXdXdXdX^ O t W H Y _ _ ~ 5.T.6.6.I.Y.W.oX,X!.x.tX.Xw.Q.dXdXdXdX",
"dXdXdXdXdX^ % 9 ~ W Y ! ' ` d./.~./.!.XX!.B.%XqXk.e.W.dXdXdXdXdX",
"dXdXdXdXdXdX#.0 = Y _ { W s.oX#XoXoX~.!.%X%XOXh g.P.dXdXdXdXdXdX",
"dXdXdXdXdXdXdXdXA - % g _ L.s.^.E.^.XX#Xp.h l D.dXdXdXdXdXdXdXdX",
"dXdXdXdXdXdXdXdXdX3.R q % ; 1 7 7 u u i ( n.<.dXdXdXdXdXdXdXdXdX",
"dXdXdXdXdXdXdXdXdXdXdXdX#.^ Q Q ~ ~ ;.$.dXdXdXdXdXdXdXdXdXdXdXdX"
};
