/* XPM */
static char *result[] = {
/* columns rows colors chars-per-pixel */
"16 16 203 2 ",
"   c #A36D1A",
".  c #A27319",
"X  c #A77619",
"o  c #A9761A",
"O  c #AE7B1C",
"+  c #AD8116",
"@  c #B68A15",
"#  c #B78B15",
"$  c #B48917",
"%  c #B7831D",
"&  c #B4871C",
"*  c #B98718",
"=  c #B9871B",
"-  c #B8801E",
";  c #B8831E",
":  c #B9851D",
">  c #B8841E",
",  c #BC851D",
"<  c #B58A1D",
"1  c #BE8F1B",
"2  c #BC891D",
"3  c #B88C1F",
"4  c #BA8C1E",
"5  c #AF8722",
"6  c #BD9224",
"7  c #BC952B",
"8  c #B79633",
"9  c #B79939",
"0  c #BE9F3D",
"q  c #C38E1D",
"w  c #CA9A15",
"e  c #C2921B",
"r  c #C69319",
"t  c #C7971C",
"y  c #C8951D",
"u  c #CB9819",
"i  c #CC9A1A",
"p  c #CF9F1E",
"a  c #CFA01D",
"s  c #D3A519",
"d  c #D5A419",
"f  c #D9A31A",
"g  c #DAA51D",
"h  c #E4A41D",
"j  c #C09021",
"k  c #C69B21",
"l  c #C0962A",
"z  c #C49729",
"x  c #C0972D",
"c  c #C2992A",
"v  c #C6982B",
"b  c #CA9A2B",
"n  c #C89D2E",
"m  c #C29938",
"M  c #CFA62B",
"N  c #D1A220",
"B  c #D1A221",
"V  c #D2A321",
"C  c #D4A521",
"Z  c #D4A822",
"A  c #D5AB25",
"S  c #DBAC23",
"D  c #D1A429",
"F  c #D0A42A",
"G  c #D0A62D",
"H  c #D2A52F",
"J  c #DBA428",
"K  c #D5AC28",
"L  c #D0A92D",
"P  c #D8AB2D",
"I  c #D8AA2F",
"U  c #DAAF2E",
"Y  c #DFB42B",
"T  c #DDB12E",
"R  c #CAA036",
"E  c #CCA136",
"W  c #CFAB38",
"Q  c #D6AE3B",
"!  c #D8AE3A",
"~  c #D7B231",
"^  c #DFB537",
"/  c #DFB339",
"(  c #DBB63D",
")  c #ECAA20",
"_  c #EEAB21",
"`  c #E1AF2B",
"'  c #E5AC2E",
"]  c #E9AE29",
"[  c #ECB024",
"{  c #EFB624",
"}  c #ECB22B",
"|  c #F7B620",
" . c #F4B822",
".. c #F6B823",
"X. c #F7B823",
"o. c #F5B824",
"O. c #F3B62D",
"+. c #F2B82B",
"@. c #F5BC2B",
"#. c #E2B734",
"$. c #EBB737",
"%. c #EEB835",
"&. c #E8BD3A",
"*. c #EBBB3F",
"=. c #F1BA30",
"-. c #F5BC32",
";. c #F8C02A",
":. c #AC9542",
">. c #C2A645",
",. c #C0A547",
"<. c #CFA840",
"1. c #C5AA49",
"2. c #C6AB49",
"3. c #C4AA4A",
"4. c #C6AC49",
"5. c #C8AA4D",
"6. c #D1AD4A",
"7. c #D4AD48",
"8. c #CFB44E",
"9. c #DCB646",
"0. c #D5B54A",
"q. c #D5B14E",
"w. c #D8B74E",
"e. c #DFBC48",
"r. c #CCA651",
"t. c #C3AE57",
"y. c #CFB151",
"u. c #CAB156",
"i. c #C3B15F",
"p. c #D9B655",
"a. c #D2B857",
"s. c #D4B45B",
"d. c #DBB85A",
"f. c #DEBC5A",
"g. c #DCBD5F",
"h. c #DEBF5F",
"j. c #E0B140",
"k. c #E7BF46",
"l. c #EABD46",
"z. c #C3B463",
"x. c #CDBE66",
"c. c #C9BA68",
"v. c #D1BC63",
"b. c #D3BF67",
"n. c #D8BE62",
"m. c #DCC258",
"M. c #D8C05D",
"N. c #DEC15D",
"B. c #EBC343",
"V. c #EEC045",
"C. c #EFC54A",
"Z. c #EEC54B",
"A. c #EBC14D",
"S. c #EFC54E",
"D. c #F2C042",
"F. c #F0C247",
"G. c #E1C055",
"H. c #ECC652",
"J. c #EBC554",
"K. c #EAC855",
"L. c #E0C65B",
"P. c #E7C75F",
"I. c #E8C35C",
"U. c #E7C858",
"Y. c #E7CB5F",
"T. c #EAC95A",
"R. c #EFCA5B",
"E. c #E8CC5D",
"W. c #F4CC58",
"Q. c #F5CE5B",
"!. c #F8D654",
"~. c #FAD55C",
"^. c #F9D45E",
"/. c #FBD95F",
"(. c #DBC168",
"). c #DEC469",
"_. c #DFCD6E",
"`. c #D5C770",
"'. c #D7C771",
"]. c #E7CE66",
"[. c #E8CA60",
"{. c #ECCB60",
"}. c #EDCD60",
"|. c #ECCF64",
" X c #E3C66D",
".X c #F0CD62",
"XX c #EDD467",
"oX c #EAD26A",
"OX c #EFD26D",
"+X c #F0D262",
"@X c #F3D56C",
"#X c #FBDB68",
"$X c #F9DF6D",
"%X c #E4D173",
"&X c #E3D274",
"*X c #E9D379",
"=X c #F0D372",
"-X c #F1DD75",
";X c #F6DC76",
":X c #FCE274",
">X c #F7E27E",
",X c #FDE97E",
"<X c None",
/* pixels */
"<X<X<X<X<XV y q , - : <X<X<X<X<X",
"<X<X<XL 1 i S #.I b ;   > <X<X<X",
"<X<X0.n C s Y B.&.P j 2 o O <X<X",
"<XL.n.N.e.H.Q.J.V.O.[ r * X % <X",
"<Xu.h.*XP..X#XS.D.-.+.*.u e . <X",
"m.y.(. XOX>X:X}.^.~.!.' h w 3 = ",
",.q.).=X;Xr.N i.%Xt 1...) d Z + ",
">.7.g.{.@Xs.B c.`.t 4. .%.f A @ ",
"0 <.p.I.R.d.B x._.t 2.@.A.g K # ",
"8 R 6.W./.f.a z.&Xt 3.o._ T ~ $ ",
"W 7 m j.F.$XU ,X|.Q :.=.] XX8.F ",
"<X5 v E l.$.k.M.t.9 ` J +X-Xv.<X",
"<XM < z H { | ;./ X.} T.oX'.G.<X",
"<X<Xk < D G ^ C.Z.K.[.].b.w.<X<X",
"<X<X<XV & c ( U.E.Y.a.5.9.<X<X<X",
"<X<X<X<X<Xp 4 6 l x ! <X<X<X<X<X"
};
